<?xml version="1.0" encoding="UTF-8"?>
<svg xmlns="http://www.w3.org/2000/svg" xmlns:xlink="http://www.w3.org/1999/xlink" version="1.1" viewBox="0 0 700 700">
  <defs>
    <style>
      .cls-1 {
        fill: url(#Dégradé_sans_nom_2);
      }

      .cls-2 {
        fill: none;
        stroke: #fff;
        stroke-miterlimit: 10;
        stroke-width: 7px;
      }

      .cls-3 {
        fill: #fff;
      }

      .cls-4 {
        fill: url(#Dégradé_sans_nom);
      }
    </style>
    <radialGradient id="Dégradé_sans_nom" data-name="Dégradé sans nom" cx="350" cy="812.7" fx="350" fy="812.7" r="243.3" gradientTransform="translate(0 -462.7)" gradientUnits="userSpaceOnUse">
      <stop offset="0" stop-color="#eb77a2"/>
      <stop offset=".6" stop-color="#f3adc7"/>
      <stop offset="1" stop-color="#ffe0de"/>
    </radialGradient>
    <radialGradient id="Dégradé_sans_nom_2" data-name="Dégradé sans nom 2" cx="347.5" cy="823" fx="347.5" fy="823" r="118" gradientTransform="translate(0 -462.7)" gradientUnits="userSpaceOnUse">
      <stop offset="0" stop-color="#eb77a2"/>
      <stop offset="1" stop-color="#ffd4b3" stop-opacity="0"/>
    </radialGradient>
  </defs>
  <!-- Generator: Adobe Illustrator 28.7.1, SVG Export Plug-In . SVG Version: 1.2.0 Build 142)  -->
  <g>
    <g id="Calque_1">
      <g id="_レイヤー_1">
        <rect class="cls-3" width="700" height="700"/>
        <g>
          <path class="cls-4" d="M596.4,292.9c-.6-1.5-1.7-2.6-2.9-2.8-2.9-.7-11.8-1.7-22.4-2.6-3.2-.3-6.5-.6-9.6-.9,2.6-2.2,5.4-4.6,8.1-6.8,7.8-6.6,14.8-12.5,16.9-14.8,1-1.1,1.5-2.8,1.2-4.6-.2-1.8-1.1-3.4-2.3-4.3-21.7-16.1-52.9-27-83.3-28.8-17.8-1.1-34.7.7-49.8,5.3-5.9,1.8-11.6,4.1-17.1,6.7.2-4.3.3-8.6.1-12.9-2.2-50-32-97.7-65.2-115.2-1-.6-2.2-.8-3.4-.8s-.8,0-1.3,0c-1.6.3-3,1.1-3.6,2.2-1.5,2.6-5.1,10.9-9.2,20.7-1.2,2.9-2.5,6-3.7,8.8-1.4-3.1-2.8-6.4-4.1-9.5-3.9-8.9-7.4-16.5-8.9-18.9-.7-1.1-2.2-1.9-3.9-2.1h-.8c-1.5,0-2.9.4-3.9,1.2-35.7,25.2-62.8,73.9-62.6,118.1,0,4,.2,7.9.6,11.9-6.1-3.3-12.4-6.1-19.1-8.5-19.3-6.8-42.6-9.6-64.7-7.9-27.9,2-51.8,10.8-67.5,23.8-1.2,1-2,2.5-2.2,4.2s.2,3.3,1.2,4.4c2.2,2.6,9.3,9.5,17.3,17.2,2.5,2.4,5,4.8,7.3,7.1-3.3.1-6.9.1-10.3.2-8.2.2-15.3.4-18.9.8-.7.1-1.2.1-1.7.2-1.3.2-2.4,1.3-3.1,2.9-.6,1.6-.7,3.5-.2,5,14.6,43.5,46,85.2,85.9,101.8,7.9,3.3,16,5.7,24.3,7.3-8,7-14.9,14.8-21,23.6-27.7,40.6-36.9,99.4-23.4,139.1.5,1.6,1.9,2.9,3.5,3.6.7.3,1.5.5,2.2.5s1.9-.2,2.7-.6c3.4-1.8,12.9-7.6,23.2-13.9,3.2-1.9,6.4-3.9,9.4-5.7-.9,3.5-1.9,7.2-2.9,10.7-2.8,10.2-5.2,19.3-5.6,22.5-.2,1.5.6,3,2,4.1,1.2.9,2.7,1.4,4.2,1.4s.6,0,.9,0c50.7-6.9,99.4-26.5,127-59.9,7.1-8.7,12.8-18.1,17.3-28.4,4.3,10.3,9.8,19.8,16.7,28.5,30.3,37.6,79.6,58.9,123,62.8h.5c1.6,0,3.2-.5,4.4-1.5,1.3-1.1,2-2.5,1.9-3.9-.4-3.4-2.5-13.3-4.9-24.3-.8-3.5-1.6-7-2.3-10.3,3.1,2.1,6.4,4.3,9.6,6.4,9.1,6.1,17.6,11.9,20.8,13.6.8.4,1.7.6,2.7.6s1.6-.2,2.4-.6c1.7-.8,3-2.2,3.5-3.9,12.5-47.8,5-104.8-19.1-141.1-6.5-9.7-14.1-18.3-23-25.9,5.8-1.3,11.5-2.9,17-5,45.8-17.1,79.6-58.5,90.3-95.9.5-1.6.4-3.4-.2-4.9h0Z"/>
          <circle class="cls-1" cx="347.5" cy="360.3" r="118"/>
          <g>
            <g>
              <line class="cls-2" x1="349.3" y1="278.4" x2="349.3" y2="444.4"/>
              <path class="cls-3" d="M338.8,278.9c0-5.8,4.7-10.5,10.5-10.5s10.5,4.7,10.5,10.5-4.7,10.5-10.5,10.5c-5.8.1-10.5-4.7-10.5-10.5Z"/>
              <path class="cls-3" d="M338.8,443.9c0,5.8,4.7,10.5,10.5,10.5s10.5-4.7,10.5-10.5-4.7-10.5-10.5-10.5-10.5,4.7-10.5,10.5Z"/>
            </g>
            <g>
              <line class="cls-2" x1="432" y1="361.4" x2="266" y2="361.4"/>
              <path class="cls-3" d="M431.5,350.9c5.8,0,10.5,4.7,10.5,10.5s-4.7,10.5-10.5,10.5-10.5-4.7-10.5-10.5,4.7-10.5,10.5-10.5Z"/>
              <path class="cls-3" d="M266.6,350.9c-5.8,0-10.5,4.7-10.5,10.5s4.7,10.5,10.5,10.5,10.5-4.7,10.5-10.5-4.7-10.5-10.5-10.5Z"/>
            </g>
            <g>
              <line class="cls-2" x1="408" y1="420.1" x2="290.6" y2="302.7"/>
              <path class="cls-3" d="M415.1,412.3c4.1,4.1,4.1,10.8,0,14.9s-10.8,4.1-14.9,0-4.1-10.8,0-14.9,10.7-4.1,14.9,0Z"/>
              <path class="cls-3" d="M298.4,295.6c-4.1-4.1-10.8-4.1-14.9,0s-4.1,10.8,0,14.9,10.8,4.1,14.9,0,4.1-10.7,0-14.9Z"/>
            </g>
            <g>
              <line class="cls-2" x1="408" y1="302.7" x2="290.6" y2="420.1"/>
              <path class="cls-3" d="M400.2,295.6c4.1-4.1,10.8-4.1,14.9,0s4.1,10.8,0,14.9-10.8,4.1-14.9,0-4.1-10.7,0-14.9Z"/>
              <path class="cls-3" d="M283.5,412.3c-4.1,4.1-4.1,10.8,0,14.9s10.8,4.1,14.9,0c4.1-4.1,4.1-10.8,0-14.9s-10.8-4.1-14.9,0Z"/>
            </g>
          </g>
        </g>
      </g>
    </g>
  </g>
</svg>